<svg width="119" height="19" viewBox="0 0 119 19" fill="none" xmlns="http://www.w3.org/2000/svg">
<g clip-path="url(#clip0_115_241)">
<path fill-rule="evenodd" clip-rule="evenodd" d="M9.81253 14.0551L4.04489 17.8345L5.85696 11.1812L0.480286 6.86377L7.36785 6.53118L9.81253 0.0834961L12.2572 6.53118L19.1448 6.86377L13.7681 11.1812L15.5802 17.8345L9.81253 14.0551Z" fill="#FFC54F"/>
</g>
<g clip-path="url(#clip1_115_241)">
<path fill-rule="evenodd" clip-rule="evenodd" d="M34.4375 14.0551L28.6699 17.8345L30.482 11.1812L25.1053 6.86377L31.9929 6.53118L34.4375 0.0834961L36.8822 6.53118L43.7698 6.86377L38.3931 11.1812L40.2052 17.8345L34.4375 14.0551Z" fill="#FFC54F"/>
</g>
<g clip-path="url(#clip2_115_241)">
<path fill-rule="evenodd" clip-rule="evenodd" d="M59.0625 14.0551L53.2949 17.8345L55.107 11.1812L49.7303 6.86377L56.6179 6.53118L59.0625 0.0834961L61.5072 6.53118L68.3948 6.86377L63.0181 11.1812L64.8302 17.8345L59.0625 14.0551Z" fill="#FFC54F"/>
</g>
<g clip-path="url(#clip3_115_241)">
<path fill-rule="evenodd" clip-rule="evenodd" d="M83.6875 14.0551L77.9199 17.8345L79.732 11.1812L74.3553 6.86377L81.2429 6.53118L83.6875 0.0834961L86.1322 6.53118L93.0198 6.86377L87.6431 11.1812L89.4552 17.8345L83.6875 14.0551Z" fill="#FFC54F"/>
</g>
<g clip-path="url(#clip4_115_241)">
<path fill-rule="evenodd" clip-rule="evenodd" d="M108.313 14.0551L102.545 17.8345L104.357 11.1812L98.9803 6.86377L105.868 6.53118L108.313 0.0834961L110.757 6.53118L117.645 6.86377L112.268 11.1812L114.08 17.8345L108.313 14.0551Z" fill="#FFC54F"/>
</g>
<defs>
<clipPath id="clip0_115_241">
<rect width="19.625" height="17.9896" fill="white" transform="translate(0 0.0834961)"/>
</clipPath>
<clipPath id="clip1_115_241">
<rect width="19.625" height="17.9896" fill="white" transform="translate(24.625 0.0834961)"/>
</clipPath>
<clipPath id="clip2_115_241">
<rect width="19.625" height="17.9896" fill="white" transform="translate(49.25 0.0834961)"/>
</clipPath>
<clipPath id="clip3_115_241">
<rect width="19.625" height="17.9896" fill="white" transform="translate(73.875 0.0834961)"/>
</clipPath>
<clipPath id="clip4_115_241">
<rect width="19.625" height="17.9896" fill="white" transform="translate(98.5 0.0834961)"/>
</clipPath>
</defs>
</svg>
