<?xml version="1.0" standalone="no"?>
<!DOCTYPE svg PUBLIC "-//W3C//DTD SVG 20010904//EN"
 "http://www.w3.org/TR/2001/REC-SVG-20010904/DTD/svg10.dtd">
<svg version="1.0" xmlns="http://www.w3.org/2000/svg"
 width="785.000000pt" height="785.000000pt" viewBox="0 0 785.000000 785.000000"
 preserveAspectRatio="xMidYMid meet">
<metadata>
Created by potrace 1.14, written by Peter Selinger 2001-2017
</metadata>
<g transform="translate(0.000000,785.000000) scale(0.100000,-0.100000)"
fill="#000000" stroke="none">
<path d="M3487 7764 c-1 -1 -20 -5 -42 -8 -22 -4 -57 -11 -79 -17 -21 -6 -41
-8 -44 -5 -3 3 -11 1 -19 -5 -7 -6 -13 -9 -13 -5 0 3 -17 -1 -37 -9 -21 -8
-47 -16 -58 -18 -44 -8 -75 -20 -75 -28 0 -5 -8 -9 -18 -9 -10 0 -37 -9 -60
-20 -22 -11 -61 -20 -86 -20 -25 0 -47 -4 -50 -9 -4 -5 -14 -8 -24 -7 -9 2
-26 -3 -37 -10 -11 -8 -27 -14 -36 -14 -9 0 -34 -8 -55 -17 -22 -9 -46 -18
-54 -19 -19 -4 -170 -82 -190 -99 -8 -7 -25 -16 -37 -19 -13 -4 -23 -12 -23
-17 0 -5 -6 -9 -12 -9 -11 0 -124 -79 -178 -123 -8 -7 -19 -14 -25 -16 -5 -3
-22 -16 -36 -30 -15 -14 -49 -45 -77 -69 -64 -54 -200 -195 -272 -283 -19 -23
-39 -47 -45 -53 -21 -24 -55 -76 -55 -84 0 -5 -6 -15 -14 -21 -8 -7 -34 -44
-57 -84 -24 -40 -46 -74 -49 -77 -9 -7 -24 -43 -22 -52 1 -5 -1 -8 -6 -8 -4 0
-13 -15 -21 -32 -8 -18 -27 -52 -43 -75 -15 -23 -29 -50 -31 -60 -2 -10 -15
-42 -30 -70 -15 -29 -25 -53 -21 -53 3 0 -1 -7 -10 -15 -8 -9 -13 -22 -10 -30
4 -8 2 -15 -4 -15 -8 0 -17 -19 -21 -45 0 -3 -8 -22 -17 -43 -18 -41 -63 -169
-69 -192 -2 -8 -12 -46 -23 -85 -11 -38 -20 -73 -20 -78 0 -4 -4 -33 -8 -65
-9 -76 -11 -93 -13 -117 -1 -16 -9 -21 -33 -23 -18 -2 -37 -7 -42 -12 -6 -6
-22 -10 -37 -10 -74 0 -154 -81 -161 -165 -2 -22 -7 -45 -10 -51 -19 -29 15
-742 38 -804 3 -8 8 -42 11 -75 3 -33 14 -77 24 -97 11 -21 19 -44 19 -52 0
-7 7 -16 15 -20 8 -3 15 -12 15 -20 0 -8 6 -16 13 -19 9 -3 9 -12 -2 -43 -20
-52 -15 -156 9 -227 11 -31 20 -65 20 -75 0 -9 6 -29 14 -44 8 -15 16 -42 19
-61 2 -19 12 -50 21 -68 9 -17 16 -41 16 -51 0 -10 9 -37 21 -59 21 -42 20
-65 -3 -144 -19 -65 -14 -230 7 -265 3 -4 7 -25 10 -46 3 -22 12 -68 20 -104
8 -36 16 -78 19 -95 5 -39 16 -84 26 -115 5 -14 11 -44 13 -68 3 -31 11 -48
28 -60 29 -20 69 -27 69 -12 0 6 4 8 10 5 5 -3 30 3 54 14 44 19 45 20 42 64
-3 52 18 56 28 6 3 -16 6 -31 7 -34 6 -16 20 -111 25 -170 3 -38 10 -75 15
-81 5 -6 6 -13 3 -17 -3 -3 -1 -21 5 -40 6 -18 14 -57 17 -87 2 -29 9 -61 15
-71 5 -11 7 -19 4 -19 -3 0 -1 -9 5 -19 5 -11 12 -37 14 -59 2 -22 12 -64 22
-93 10 -30 17 -60 15 -67 -1 -8 2 -19 7 -25 7 -10 38 -111 46 -152 2 -5 10
-27 19 -49 9 -21 17 -42 17 -46 0 -4 7 -20 14 -36 8 -15 13 -31 10 -36 -3 -4
-2 -8 3 -8 4 0 14 -15 21 -32 7 -18 22 -51 32 -73 11 -22 20 -45 20 -51 0 -6
7 -17 16 -24 8 -8 22 -27 30 -44 24 -50 47 -91 54 -96 3 -3 17 -21 30 -40 13
-19 29 -40 35 -46 5 -7 19 -24 30 -39 62 -87 337 -361 485 -485 56 -47 80 -66
116 -95 20 -16 50 -42 66 -58 16 -15 31 -27 34 -27 4 0 16 -9 28 -19 11 -11
44 -38 71 -61 28 -22 57 -47 66 -55 9 -8 20 -15 25 -15 5 0 15 -9 22 -20 7
-11 17 -20 22 -20 12 0 73 -41 78 -52 2 -5 8 -8 14 -8 5 0 23 -9 39 -21 52
-36 288 -110 323 -101 5 2 16 0 25 -4 75 -34 492 -38 582 -6 13 5 46 10 74 11
27 2 58 7 67 12 10 5 18 7 18 4 0 -3 10 -1 21 6 12 6 41 13 65 15 24 2 57 10
73 19 17 8 38 15 48 15 10 0 33 9 51 20 18 11 39 20 48 20 8 0 17 7 20 15 4 8
11 15 18 15 11 0 139 92 166 120 8 8 42 38 75 65 33 28 69 59 81 70 11 11 52
47 89 80 38 33 77 68 87 77 10 10 21 18 26 18 4 0 15 8 23 18 34 37 88 82 98
82 6 0 11 7 11 15 0 8 4 15 8 15 20 0 335 305 407 394 22 27 48 57 57 68 10
11 23 33 30 49 7 16 16 29 20 29 5 0 8 6 8 13 0 6 9 23 20 37 11 14 20 31 20
38 0 8 9 27 21 43 11 16 18 29 15 29 -3 0 3 15 14 32 11 18 20 40 20 48 0 9 6
22 13 29 6 6 12 15 12 19 1 13 28 87 35 97 4 6 11 26 15 45 4 19 13 49 20 65
13 29 24 68 32 109 2 11 7 24 12 30 5 6 12 27 14 46 3 19 6 35 7 35 1 0 3 11
6 24 2 14 8 29 12 35 5 6 9 27 11 46 2 19 8 41 13 48 6 6 8 12 4 12 -3 0 -1
12 4 26 6 14 12 40 14 57 2 18 13 64 23 102 11 39 19 77 18 85 -1 8 2 20 6 25
6 10 22 69 24 90 0 6 16 9 35 8 51 -3 91 -3 127 1 18 2 45 -3 60 -11 34 -19
102 -20 113 -3 8 13 40 113 61 190 7 25 16 49 21 55 4 5 8 22 8 37 0 15 9 56
19 90 11 35 30 98 42 141 13 42 27 77 31 77 5 0 7 4 3 9 -3 5 -1 12 5 16 5 3
10 17 10 31 0 14 9 42 20 64 11 22 20 43 20 48 0 5 8 27 17 48 9 22 18 44 19
51 1 7 9 34 18 60 8 26 17 59 20 73 2 14 11 43 20 64 9 21 16 51 16 67 0 15 4
40 10 54 30 79 29 288 -1 320 -5 5 -9 16 -9 26 0 26 -67 107 -103 123 -81 36
-95 37 -155 10 -31 -14 -59 -28 -62 -32 -3 -4 -27 -23 -55 -41 -27 -19 -52
-38 -55 -42 -9 -13 -65 -17 -79 -5 -12 9 -13 8 -6 -3 5 -10 4 -12 -3 -7 -13 8
-7 77 10 113 6 11 28 29 49 39 22 9 39 22 39 27 0 6 2 8 5 5 5 -5 92 73 91 82
0 3 7 19 16 35 21 41 36 92 42 145 27 229 30 273 29 535 0 268 -3 322 -20 365
-6 14 -8 31 -6 38 3 6 1 12 -5 12 -5 0 -12 8 -14 18 -6 21 -75 58 -123 66 -79
15 -91 18 -100 27 -5 6 -11 20 -12 32 -2 21 -8 66 -18 132 -3 17 -5 34 -4 39
0 5 -4 12 -9 15 -6 4 -12 18 -14 33 -2 15 -7 30 -11 34 -4 4 -7 16 -7 26 0 10
-4 18 -10 18 -5 0 -10 11 -10 25 0 13 -8 39 -18 57 -10 18 -31 65 -47 103 -16
39 -34 77 -41 85 -7 8 -16 27 -19 43 -4 15 -11 27 -16 27 -5 0 -9 9 -9 20 0
11 -5 20 -11 20 -5 0 -7 5 -4 10 3 6 3 10 -2 10 -4 0 -26 36 -47 80 -22 44
-43 80 -48 80 -4 0 -8 4 -8 10 0 12 -132 207 -160 238 -11 12 -20 25 -20 29 0
5 -8 16 -17 24 -10 9 -38 39 -63 69 -55 65 -158 168 -235 235 -31 28 -69 61
-84 75 -29 26 -47 39 -141 105 -30 21 -56 42 -58 47 -2 4 -8 8 -14 8 -6 0 -29
12 -52 28 -23 15 -89 49 -146 76 -58 27 -117 55 -132 62 -14 8 -32 14 -40 14
-8 0 -31 9 -53 20 -22 11 -49 20 -61 20 -13 0 -35 5 -51 11 -41 16 -62 20
-118 25 -27 3 -64 9 -81 15 -16 5 -95 8 -175 6 -79 -2 -157 0 -174 5 -27 8
-62 17 -90 22 -5 1 -16 5 -22 9 -7 5 -13 6 -13 3 0 -3 -12 -1 -27 5 -16 6 -45
12 -65 14 -20 2 -46 6 -58 10 -12 4 -34 9 -48 11 -29 5 -300 12 -305 8z"/>
</g>
</svg>
