<svg width="15" height="14" viewBox="0 0 15 14" fill="none" xmlns="http://www.w3.org/2000/svg">
<path d="M3.20502 1.74977C3.20482 2.1476 3.04659 2.52905 2.76515 2.81021C2.4837 3.09138 2.10209 3.24922 1.70427 3.24902C1.30644 3.24883 0.924991 3.0906 0.643827 2.80915C0.362663 2.52771 0.204818 2.1461 0.205017 1.74827C0.205216 1.35045 0.363442 0.968997 0.644887 0.687833C0.926333 0.406669 1.30794 0.248825 1.70577 0.249024C2.10359 0.249223 2.48504 0.407449 2.76621 0.688894C3.04737 0.970339 3.20522 1.35195 3.20502 1.74977ZM3.25002 4.35977H0.250017V13.7498H3.25002V4.35977ZM7.99002 4.35977H5.00502V13.7498H7.96002V8.82227C7.96002 6.07727 11.5375 5.82227 11.5375 8.82227V13.7498H14.5V7.80227C14.5 3.17477 9.20502 3.34727 7.96002 5.61977L7.99002 4.35977Z" fill="#75757F"/>
</svg>
